<?xml version="1.0" encoding="utf-8"?>
<!-- Generator: Adobe Illustrator 25.3.1, SVG Export Plug-In . SVG Version: 6.00 Build 0)  -->
<svg version="1.1" id="Layer_1" xmlns="http://www.w3.org/2000/svg" xmlns:xlink="http://www.w3.org/1999/xlink" x="0px" y="0px"
	 viewBox="0 0 1024 1024" style="enable-background:new 0 0 1024 1024;" xml:space="preserve">
<style type="text/css">
	.st0{fill-rule:evenodd;clip-rule:evenodd;}
</style>
<g>
	<path class="st0" d="M512,0C229.3,0,0,235,0,525c0,231.9,146.7,428.7,350.1,498.1c25.6,4.9,35-11.4,35-25.3
		c0-12.5-0.5-53.9-0.7-97.7c-142.4,31.8-172.5-61.9-172.5-61.9c-23.3-60.7-56.8-76.8-56.8-76.8c-46.5-32.6,3.5-31.9,3.5-31.9
		c51.4,3.7,78.5,54.1,78.5,54.1c45.7,80.2,119.8,57,149,43.6c4.6-33.9,17.9-57.1,32.5-70.2c-113.7-13.3-233.3-58.3-233.3-259.4
		c0-57.3,20-104.1,52.8-140.9c-5.3-13.2-22.8-66.6,5-138.9c0,0,43-14.1,140.8,53.8c40.8-11.6,84.6-17.5,128.2-17.7
		c43.5,0.2,87.3,6,128.3,17.7c97.7-67.9,140.7-53.8,140.7-53.8c27.9,72.3,10.3,125.7,5,138.9c32.8,36.8,52.7,83.6,52.7,140.9
		c0,201.6-119.8,246-233.8,259c18.4,16.3,34.7,48.2,34.7,97.2c0,70.2-0.6,126.8-0.6,144.1c0,14,9.2,30.3,35.2,25.2
		C877.5,953.5,1024,756.8,1024,525C1024,235,794.8,0,512,0z"/>
	<path d="M193.9,753.7c-1.1,2.6-5.1,3.4-8.8,1.6c-3.7-1.7-5.8-5.3-4.6-7.9c1.1-2.7,5.1-3.4,8.8-1.6
		C193.1,747.5,195.2,751.1,193.9,753.7L193.9,753.7z"/>
	<path d="M214.7,777.4c-2.4,2.3-7.2,1.2-10.5-2.4c-3.4-3.7-4-8.6-1.5-10.9c2.5-2.3,7.1-1.2,10.5,2.4
		C216.6,770.2,217.2,775.1,214.7,777.4L214.7,777.4z"/>
	<path d="M234.9,807.7c-3.1,2.2-8.3,0.1-11.4-4.5c-3.1-4.7-3.1-10.3,0.1-12.5c3.2-2.2,8.2-0.2,11.4,4.4
		C238.1,799.8,238.1,805.4,234.9,807.7L234.9,807.7z"/>
	<path d="M262.5,836.9c-2.8,3.2-8.8,2.3-13.2-2c-4.5-4.2-5.7-10.2-2.9-13.4c2.8-3.2,8.9-2.3,13.3,2
		C264.1,827.7,265.5,833.7,262.5,836.9L262.5,836.9z"/>
	<path d="M300.7,853.9c-1.2,4.1-7,6-12.8,4.2c-5.8-1.8-9.6-6.6-8.4-10.8c1.2-4.1,7-6.1,12.8-4.2
		C298.1,844.9,301.9,849.7,300.7,853.9L300.7,853.9z"/>
	<path d="M342.6,857c0.1,4.3-4.8,7.9-10.9,8c-6.1,0.1-11.1-3.4-11.1-7.6c0-4.4,4.8-7.9,10.9-8C337.6,849.2,342.6,852.7,342.6,857
		L342.6,857z"/>
	<path d="M381.6,850.2c0.7,4.2-3.5,8.6-9.5,9.7c-5.9,1.1-11.4-1.5-12.2-5.7c-0.7-4.3,3.6-8.7,9.5-9.8
		C375.4,843.4,380.8,845.9,381.6,850.2L381.6,850.2z"/>
</g>
</svg>
