<?xml version="1.0" encoding="utf-8"?>
<!-- Generator: Adobe Illustrator 25.3.1, SVG Export Plug-In . SVG Version: 6.00 Build 0)  -->
<svg version="1.1" id="Layer_1" xmlns="http://www.w3.org/2000/svg" xmlns:xlink="http://www.w3.org/1999/xlink" x="0px" y="0px"
	 viewBox="0 0 1024 1024" style="enable-background:new 0 0 1024 1024;" xml:space="preserve">
<g>
	<path d="M543,426.4v-1.1c-0.2,0.3-0.5,0.7-0.7,1.1H543z"/>
	<path d="M512,0C229.2,0,0,229.2,0,512s229.2,512,512,512s512-229.2,512-512S794.8,0,512,0z M371,711.1H260.3V378.1H371L371,711.1
		L371,711.1z M315.7,332.6h-0.7c-37.1,0-61.2-25.6-61.2-57.6c0-32.7,24.8-57.5,62.7-57.5c37.9,0,61.2,24.9,61.9,57.5
		C378.3,307,354.3,332.6,315.7,332.6z M770.3,711.1H659.6V532.9c0-44.8-16-75.3-56.1-75.3c-30.6,0-48.8,20.6-56.8,40.5
		c-2.9,7.1-3.7,17-3.7,27v186H432.3c0,0,1.5-301.8,0-333.1H543v47.2c14.7-22.7,41-55,99.8-55c72.9,0,127.5,47.6,127.5,149.9
		L770.3,711.1L770.3,711.1z"/>
</g>
</svg>
