<?xml version="1.0" encoding="utf-8"?>
<!-- Generator: Adobe Illustrator 25.3.1, SVG Export Plug-In . SVG Version: 6.00 Build 0)  -->
<svg version="1.1" id="Layer_1" xmlns="http://www.w3.org/2000/svg" xmlns:xlink="http://www.w3.org/1999/xlink" x="0px" y="0px"
	 viewBox="0 0 1024 1024" style="enable-background:new 0 0 1024 1024;" xml:space="preserve">
<g id="Web">
	<path id="Website_1_" d="M512,0C229.2,0,0,229.2,0,512s229.2,512,512,512c282.8,0,512-229.2,512-512C1024,229.2,794.8,0,512,0z
		 M897.8,296.8C916,329.3,930,363.9,939.4,400H767.2c-6.4-35-15.7-69.6-28.1-103.2H897.8L897.8,296.8z M720,585.6l-48.2-147
		l30.8-13.6l34.3,114.4l26.6-73.1h33.9l26.6,73.1L858.1,425l30.8,13.6l-48.2,147L810.3,599l-30-100.3l-30,100.3L720,585.6z
		 M723.6,624c-6.9,35-17,69.4-30.3,102.7H533.4V624H723.6z M824.3,199.7c17,17,32.4,35.1,46.2,54.2H721.4
		C692.1,190,651.2,130.5,598.8,78.9C683.7,95.7,761.7,137.2,824.3,199.7z M533.4,77.6c60.3,50.2,107.1,110.5,140.2,176.3H533.4V77.6
		z M533.4,296.8h159.6c13.5,33.5,23.6,68,30.5,103.2H533.4V296.8z M490.6,78.1v175.8H351C384,188.3,430.6,128.2,490.6,78.1z
		 M301.1,400c6.9-35.1,17.1-69.7,30.5-103.2h159V400H301.1z M352.3,438.6l-48.2,147L273.8,599l-30-100.3l-30,100.3l-30.3-13.4
		l-48.2-147l30.8-13.6l34.3,114.4l26.6-73.1h33.9l26.6,73.1L321.5,425L352.3,438.6z M199.7,199.7C262.5,137,340.8,95.4,426,78.7
		c-52.5,51.7-93.4,111.2-122.8,175.2H153.6C167.3,234.8,182.8,216.7,199.7,199.7z M126.2,296.8h159.4
		c-12.4,33.6-21.7,68.1-28.1,103.2H84.7C94,363.9,108,329.3,126.2,296.8z M125.9,726.7C107.8,694.4,94,659.9,84.7,624h172.8
		c6.3,34.9,15.6,69.3,27.9,102.7H125.9z M199.7,824.3c-17.1-17.1-32.6-35.4-46.5-54.7H303c29.4,64.2,70.4,123.9,123,175.7
		C340.8,928.6,262.5,887,199.7,824.3z M490.6,945.9c-60.2-50.2-106.8-110.4-139.8-176.3h139.8V945.9z M490.6,726.7H331.4
		C318,693.4,307.9,659,301.1,624h189.5V726.7z M511.8,498.7l-30,100.3l-30.3-13.4l-48.2-147L434,425l34.3,114.4l26.6-73.1h33.9
		l26.6,73.1L589.5,425l30.8,13.6l-48.2,147L541.8,599L511.8,498.7z M533.4,946.4V769.6h140.5C640.7,835.7,593.9,896.1,533.4,946.4z
		 M824.3,824.3c-62.6,62.6-140.6,104-225.5,120.9c52.5-51.8,93.5-111.4,122.8-175.5h149.2C856.9,788.9,841.4,807.2,824.3,824.3z
		 M898.1,726.7H739.3c12.3-33.4,21.6-67.8,27.9-102.7h172.1C930,659.9,916.2,694.4,898.1,726.7z"/>
</g>
</svg>
